<svg width="1039" height="1283" viewBox="0 0 1039 1283" fill="none" xmlns="http://www.w3.org/2000/svg">
<path d="M447 2.89996C438.3 4.79999 424 10 303.5 54.7C233.1 80.8 172.6 103.8 169 105.7C154.6 113.5 142.6 126 139.5 136.3C137.6 142.8 137.6 152.9 139.5 160.5C141.3 167.7 150.6 186.7 155.4 193C157.3 195.5 218.6 278.9 291.7 378.5C421.9 555.8 424.7 559.6 431.7 564.6C450.6 578.1 473.1 581.5 490 573.3C501.2 567.9 511.9 554.1 517.5 538.1C523.3 521.5 523.2 523.3 522.6 440.5C522.3 398.7 521.7 301.5 521.4 224.5C520.7 69 520.9 74.4 513.9 52.4C506.7 29.9 499.2 19.9 483.5 11.8C468.4 4.09998 455.8 1 447 2.89996Z" fill="#FF1A1A"/>
<path d="M832 329.9C822.5 332.8 809 343.7 802.8 353.5C801.4 355.7 760.9 419.4 712.9 495C653.9 587.9 624.8 634.6 623.2 639C620.2 646.9 619.1 662.4 620.9 669.7C623.6 680.3 629.5 688.8 637.6 693.6C646.2 698.7 652.6 700.2 667.5 700.7L681.5 701.1L834 656.6C939.9 625.6 988.9 610.9 994.5 608.3C1012.3 599.9 1028.6 586.4 1033.3 576.3C1035.2 572.1 1035.5 569.9 1035.4 558.5C1035.3 547.5 1034.9 544.2 1032.6 536.7C1031.2 531.8 1029.3 526.6 1028.6 525.2C1027.8 523.7 996.2 486 958.4 441.5C920.6 396.9 886.7 356.9 883.1 352.4C872.9 340 866.1 334.7 855.1 331C848.9 328.9 837.1 328.4 832 329.9Z" fill="#FF1A1A"/>
<path d="M54.3 554.4C42.7 558.1 25.6 575.5 21.6 587.8C20.6 591 17 629.6 10.9 704.5C3.09999 800.7 1.89999 818.5 2.29999 831C3.39999 861.8 8.89999 873.5 24.3 878.2C33.3 880.9 47.1 880.3 61 876.5C66.2 875 140.7 858.4 226.5 839.5C380.9 805.4 382.6 805 391.6 800.5C403.3 794.7 409.1 789.6 413 781.7C419.1 769.3 420.8 750.1 417 737.9C413.5 726.7 404.2 715.2 391 705.8C382.2 699.6 110.9 562.5 100.1 558.9C83.6 553.3 64.1 551.4 54.3 554.4Z" fill="#FF1A1A"/>
<path d="M661.1 807.5C649.2 810.8 639.1 819.1 634.3 829.5C629.4 840.3 630.1 859.5 636 875.3C637 878 674.7 941.6 719.7 1016.8L801.5 1153.4L811 1163.3C835.3 1188.7 850.5 1192.6 876.5 1180.1C894.5 1171.5 888.7 1178.6 960.6 1076C1007.2 1009.4 1026.2 981.4 1028.6 976C1037.1 956.4 1039.6 938.9 1035.2 929.8C1030.1 919.3 1016.9 910.9 997 905.2C991.2 903.5 919.7 880.6 838 854.3L689.5 806.5L678 806.3C670.2 806.1 664.8 806.5 661.1 807.5Z" fill="#FF1A1A"/>
<path d="M466.1 868.5C455.4 872.2 445.7 878.3 437.4 886.4C422 901.5 227.6 1116.7 222.8 1124C210.8 1142.2 204.8 1160.6 207.1 1172.3C208.4 1179.6 215.1 1192.8 220.5 1198.8C230.2 1209.6 227.5 1208.6 345.5 1245.8C448.2 1278.2 454.1 1280 464.7 1281C477 1282.1 490 1281.2 498 1278.5C507.6 1275.3 514.6 1266.4 517.4 1253.9C518.5 1248.9 519.1 1230.9 519.9 1173C520.6 1132 521.7 1056 522.5 1004C524 911 524 909.3 522.1 901.8C521 897.6 518.9 891.8 517.4 888.9C513.8 881.6 505.2 872.9 498.3 869.4C493.3 866.9 491.2 866.5 483 866.2C474.9 866 472.4 866.4 466.1 868.5Z" fill="#FF1A1A"/>
</svg>
