<svg width="96" height="96" viewBox="0 0 96 96" fill="none" xmlns="http://www.w3.org/2000/svg">
<path d="M90.829 85.172L68.128 62.471C73.2357 56.0964 76.013 48.1685 76 40C76 20.118 59.883 4 40 4C20.118 4 4 20.118 4 40C4 59.882 20.118 76 40 76C48.5 76 56.312 73.054 62.471 68.127L85.172 90.828C85.543 91.2 85.9838 91.495 86.4691 91.6962C86.9544 91.8973 87.4747 92.0005 88 92C88.7911 92 89.5644 91.7655 90.2222 91.326C90.88 90.8866 91.3927 90.2619 91.6955 89.5311C91.9983 88.8002 92.0776 87.996 91.9234 87.2201C91.7691 86.4442 91.3883 85.7315 90.829 85.172ZM40 68C24.536 68 12 55.464 12 40C12 24.536 24.536 12 40 12C55.465 12 68 24.536 68 40C68 55.464 55.465 68 40 68Z" fill="white"/>
</svg>
